<svg width="287" height="218" viewBox="0 0 287 218" fill="none" xmlns="http://www.w3.org/2000/svg">
<g clip-path="url(#clip0)">
<path d="M105.337 44.5814L48.186 20.0813L40.0215 44.5814L56.3504 113.998L211.475 109.915L227.803 44.5814L215.557 20.0813L162.488 44.5814H105.337Z" fill="#333333"/>
<path d="M93.1667 89.5L178.917 97.6667L182.976 146.667H93.1667V89.5Z" fill="#FF0A0A"/>
<path d="M150.24 154.832H101.254V179.332H150.24V154.832Z" fill="#333333" fill-opacity="0.71"/>
<g filter="url(#filter0_i)">
<path d="M48.9135 103.091C50.1083 104.454 50.4497 106.329 49.9376 107.863L37.819 145.358C37.4776 146.382 37.4776 147.404 37.819 148.256L48.4014 184.558C49.2548 187.286 51.9858 188.82 54.5461 187.967L90.902 177.912C92.4382 177.4 94.145 177.912 95.5105 178.934L101.826 184.047C101.997 184.218 101.997 184.218 102.167 184.218L117.87 195.126C118.723 195.637 119.748 195.978 120.772 195.978H147.058C148.082 195.978 149.106 195.637 149.959 195.126L165.662 184.218C165.833 184.218 165.833 184.047 166.004 184.047L172.319 178.934C173.514 177.912 175.22 177.571 176.927 177.912L213.283 187.967C216.015 188.649 218.745 187.115 219.428 184.558L230.011 148.256C230.352 147.233 230.352 146.211 230.011 145.358L217.892 107.863C217.38 106.158 217.721 104.454 218.916 103.091L231.888 44.9726C232.059 44.1204 232.059 43.2683 231.717 42.4161L224.037 19.4073C223.183 16.6804 220.111 15.3169 217.38 16.3395L160.712 37.4734C160.2 37.6439 159.518 37.8143 159.006 37.8143H108.824C108.141 37.8143 107.629 37.6439 107.117 37.4734L50.4497 16.3395C47.7187 15.3169 44.6464 16.6804 43.7929 19.4073L36.2828 42.4161C35.9414 43.0978 35.9414 44.1204 36.1121 44.9726L48.9135 103.091ZM150.301 132.405L154.568 123.543C155.08 122.52 156.445 122.009 157.469 122.52L167.71 127.122C169.588 127.974 169.417 130.702 167.369 131.383L153.032 135.644C151.154 136.155 149.447 134.28 150.301 132.405ZM149.447 70.8787C148.423 70.0265 148.423 68.3221 149.618 67.6404L214.136 23.4978C215.161 22.816 216.697 23.1569 217.209 24.5204L225.231 46.5065C225.402 46.8474 225.402 47.1883 225.231 47.6995L212.088 98.3184C211.747 99.3417 210.723 99.8529 209.698 99.5115L174.196 89.9674C173.855 89.9674 173.684 89.7969 173.514 89.6265L149.447 70.8787ZM118.211 175.526L119.406 165.64C119.406 165.129 119.748 164.618 120.26 164.277L122.649 162.573C122.991 162.402 123.332 162.232 123.673 162.232H143.815C144.156 162.232 144.668 162.402 144.839 162.573L147.228 164.277C147.74 164.618 147.911 165.129 148.082 165.64L149.106 175.526C149.277 176.718 148.252 177.742 147.228 177.742H119.918C119.065 177.742 118.211 176.718 118.211 175.526ZM100.119 127.122L110.36 122.52C111.555 122.009 112.75 122.52 113.262 123.543L117.529 132.405C118.382 134.11 116.675 135.985 114.798 135.473L100.29 131.213C98.4122 130.702 98.2415 127.974 100.119 127.122ZM42.5981 47.5291C42.4275 47.1883 42.5981 46.6769 42.5981 46.3361L50.6204 24.5204C51.1324 23.3273 52.6686 22.816 53.6927 23.4978L118.211 67.6404C119.406 68.4926 119.406 70.0265 118.382 70.8787L94.3157 89.6265C94.145 89.7969 93.8037 89.9674 93.633 89.9674L58.1305 99.5115C57.1063 99.8529 56.0822 99.3417 55.7409 98.3184L42.5981 47.5291Z" fill="black"/>
</g>
</g>
<path d="M15.8301 216H26.4648C31.8789 216 35.166 213.258 35.166 208.828V208.793C35.166 205.453 32.7402 202.957 29.1719 202.641V202.553C31.8965 202.184 33.9531 199.74 33.9531 197.016V196.98C33.9531 193.131 30.9824 190.635 26.3594 190.635H15.8301V216ZM25.2168 194.168C27.9062 194.168 29.4707 195.398 29.4707 197.596V197.631C29.4707 200.021 27.7129 201.357 24.4434 201.357H20.3652V194.168H25.2168ZM25.1641 204.645C28.7148 204.645 30.543 205.98 30.543 208.529V208.564C30.543 211.113 28.75 212.467 25.4277 212.467H20.3652V204.645H25.1641ZM43.4629 216.316C45.9238 216.316 47.998 215.086 49.0703 213.135H49.1758V216H53.5527V203.186C53.5527 199.441 50.5469 196.98 45.8887 196.98C41.1602 196.98 38.2949 199.459 38.0312 202.764L38.0137 202.975H42.0742L42.1094 202.816C42.3906 201.445 43.6562 200.479 45.7305 200.479C47.9453 200.479 49.1758 201.621 49.1758 203.502V204.785L44.3066 205.084C39.7891 205.365 37.2227 207.352 37.2227 210.656V210.691C37.2227 214.014 39.7363 216.316 43.4629 216.316ZM41.582 210.516V210.498C41.582 209.021 42.7598 208.09 44.9219 207.949L49.1758 207.686V209.092C49.1758 211.307 47.2773 212.977 44.7637 212.977C42.8477 212.977 41.582 212.045 41.582 210.516ZM65.3125 216.369C70.0234 216.369 73.1699 213.416 73.5039 209.531L73.5215 209.408H69.3906L69.3555 209.566C68.9512 211.518 67.5449 212.836 65.3301 212.836C62.5703 212.836 60.7773 210.586 60.7773 206.701V206.684C60.7773 202.869 62.5527 200.531 65.3125 200.531C67.6328 200.531 68.9688 201.99 69.3379 203.801L69.373 203.959H73.5039L73.4863 203.818C73.2227 200.092 70.1641 196.98 65.2598 196.98C59.8281 196.98 56.3125 200.707 56.3125 206.648V206.666C56.3125 212.643 59.7754 216.369 65.3125 216.369ZM76.334 216H80.7109V209.531L82.1875 207.984L88.0762 216H93.1211L85.4395 205.383L92.8223 197.367H87.7598L80.7988 205.102H80.7109V190.635H76.334V216ZM105.215 216.369C109.926 216.369 112.914 212.678 112.914 206.684V206.666C112.914 200.654 109.908 196.98 105.232 196.98C102.596 196.98 100.469 198.334 99.4141 200.566H99.3086V190.635H94.9316V216H99.3086V212.836H99.4141C100.469 215.033 102.525 216.369 105.215 216.369ZM103.896 212.678C101.189 212.678 99.3086 210.34 99.3086 206.684V206.666C99.3086 203.027 101.207 200.672 103.896 200.672C106.691 200.672 108.449 202.957 108.449 206.666V206.684C108.449 210.393 106.709 212.678 103.896 212.678ZM123.971 216.369C129.438 216.369 132.988 212.73 132.988 206.684V206.648C132.988 200.637 129.385 196.98 123.953 196.98C118.539 196.98 114.953 200.672 114.953 206.648V206.684C114.953 212.713 118.486 216.369 123.971 216.369ZM123.988 212.836C121.193 212.836 119.418 210.604 119.418 206.684V206.648C119.418 202.781 121.229 200.531 123.953 200.531C126.73 200.531 128.523 202.764 128.523 206.648V206.684C128.523 210.586 126.748 212.836 123.988 212.836ZM135.801 216H140.178V205.189C140.178 202.5 141.777 200.672 144.291 200.672C146.787 200.672 148.018 202.166 148.018 204.82V216H152.395V203.941C152.395 199.617 150.057 196.98 145.961 196.98C143.131 196.98 141.232 198.281 140.266 200.285H140.178V197.367H135.801V216ZM164.102 216.369C168.971 216.369 171.713 213.486 172.293 210.621L172.346 210.428H168.25L168.215 210.551C167.793 211.799 166.369 212.959 164.189 212.959C161.342 212.959 159.549 211.025 159.479 207.756H172.521V206.35C172.521 200.725 169.217 196.98 163.891 196.98C158.564 196.98 155.137 200.848 155.137 206.719V206.736C155.137 212.66 158.512 216.369 164.102 216.369ZM163.943 200.408C166.264 200.408 167.951 201.885 168.268 204.838H159.531C159.883 201.973 161.623 200.408 163.943 200.408ZM194.037 216.439C199.873 216.439 204.18 212.836 204.83 207.633L204.865 207.457H200.418L200.365 207.633C199.539 210.762 197.271 212.502 194.037 212.502C189.625 212.502 186.777 208.951 186.777 203.309V203.291C186.777 197.666 189.607 194.133 194.037 194.133C197.342 194.133 199.574 195.943 200.312 198.844L200.4 199.178H204.848L204.83 199.002C204.162 193.834 199.873 190.195 194.037 190.195C186.76 190.195 182.137 195.188 182.137 203.291V203.309C182.137 211.412 186.742 216.439 194.037 216.439ZM213.303 216.316C215.764 216.316 217.838 215.086 218.91 213.135H219.016V216H223.393V203.186C223.393 199.441 220.387 196.98 215.729 196.98C211 196.98 208.135 199.459 207.871 202.764L207.854 202.975H211.914L211.949 202.816C212.23 201.445 213.496 200.479 215.57 200.479C217.785 200.479 219.016 201.621 219.016 203.502V204.785L214.146 205.084C209.629 205.365 207.062 207.352 207.062 210.656V210.691C207.062 214.014 209.576 216.316 213.303 216.316ZM211.422 210.516V210.498C211.422 209.021 212.6 208.09 214.762 207.949L219.016 207.686V209.092C219.016 211.307 217.117 212.977 214.604 212.977C212.688 212.977 211.422 212.045 211.422 210.516ZM237.332 216.369C242.043 216.369 245.031 212.678 245.031 206.684V206.666C245.031 200.654 242.025 196.98 237.35 196.98C234.713 196.98 232.586 198.334 231.531 200.566H231.426V190.635H227.049V216H231.426V212.836H231.531C232.586 215.033 234.643 216.369 237.332 216.369ZM236.014 212.678C233.307 212.678 231.426 210.34 231.426 206.684V206.666C231.426 203.027 233.324 200.672 236.014 200.672C238.809 200.672 240.566 202.957 240.566 206.666V206.684C240.566 210.393 238.826 212.678 236.014 212.678ZM253.346 216.316C255.807 216.316 257.881 215.086 258.953 213.135H259.059V216H263.436V203.186C263.436 199.441 260.43 196.98 255.771 196.98C251.043 196.98 248.178 199.459 247.914 202.764L247.896 202.975H251.957L251.992 202.816C252.273 201.445 253.539 200.479 255.613 200.479C257.828 200.479 259.059 201.621 259.059 203.502V204.785L254.189 205.084C249.672 205.365 247.105 207.352 247.105 210.656V210.691C247.105 214.014 249.619 216.316 253.346 216.316ZM251.465 210.516V210.498C251.465 209.021 252.643 208.09 254.805 207.949L259.059 207.686V209.092C259.059 211.307 257.16 212.977 254.646 212.977C252.73 212.977 251.465 212.045 251.465 210.516ZM267.092 216H271.469V190.635H267.092V216Z" fill="black"/>
<defs>
<filter id="filter0_i" x="36" y="16" width="196" height="183.978" filterUnits="userSpaceOnUse" color-interpolation-filters="sRGB">
<feFlood flood-opacity="0" result="BackgroundImageFix"/>
<feBlend mode="normal" in="SourceGraphic" in2="BackgroundImageFix" result="shape"/>
<feColorMatrix in="SourceAlpha" type="matrix" values="0 0 0 0 0 0 0 0 0 0 0 0 0 0 0 0 0 0 127 0" result="hardAlpha"/>
<feOffset dy="4"/>
<feGaussianBlur stdDeviation="2"/>
<feComposite in2="hardAlpha" operator="arithmetic" k2="-1" k3="1"/>
<feColorMatrix type="matrix" values="0 0 0 0 0 0 0 0 0 0 0 0 0 0 0 0 0 0 0.25 0"/>
<feBlend mode="normal" in2="shape" result="effect1_innerShadow"/>
</filter>
<clipPath id="clip0">
<rect width="196" height="196" fill="white" transform="translate(36)"/>
</clipPath>
</defs>
</svg>
